<svg width="106" height="106" viewBox="0 0 106 106" fill="none" xmlns="http://www.w3.org/2000/svg">
<rect x="4.98822" y="4.98822" width="96.0235" height="96.0235" rx="14" fill="#EBDEFC"/>
<path d="M60.0169 50.6598C60.0169 52.5224 59.2776 54.3088 57.9617 55.6258C56.6458 56.9429 54.861 57.6828 53 57.6828C51.139 57.6828 49.3542 56.9429 48.0383 55.6258C46.7224 54.3088 45.9831 52.5224 45.9831 50.6598C45.9831 46.9346 47.4617 43.362 50.0935 40.7279C52.7253 38.0938 56.2949 36.6139 60.0169 36.6139C63.7389 36.6139 67.3084 38.0938 69.9403 40.7279C72.5721 43.362 74.0507 46.9346 74.0507 50.6598C74.0507 56.2477 71.8329 61.6066 67.8851 65.5578C63.9373 69.509 58.583 71.7287 53 71.7287C47.417 71.7287 42.0627 69.509 38.1149 65.5578C34.1671 61.6066 31.9493 56.2477 31.9493 50.6598C31.9493 43.2094 34.9064 36.0642 40.1701 30.7959C45.4338 25.5277 52.5729 22.568 60.0169 22.568C67.4609 22.568 74.6 25.5277 79.8637 30.7959C85.1274 36.0642 88.0845 43.2094 88.0845 50.6598C88.0845 59.9729 84.3881 68.9045 77.8085 75.4898C71.2289 82.0751 62.305 85.7746 53 85.7746C43.695 85.7746 34.7711 82.0751 28.1915 75.4898C21.6119 68.9045 17.9155 59.9729 17.9155 50.6598C17.9026 41.5075 20.8847 32.6027 26.406 25.307C26.9435 24.5134 27.6378 23.8385 28.4459 23.3237C29.254 22.8089 30.1588 22.4651 31.1047 22.3136C32.0505 22.1621 33.0174 22.206 33.9456 22.4426C34.8739 22.6793 35.7439 23.1037 36.5021 23.6896C37.2603 24.2755 37.8906 25.0106 38.3542 25.8496C38.8177 26.6886 39.1048 27.6137 39.1976 28.5679C39.2904 29.5222 39.187 30.4853 38.8937 31.398C38.6005 32.3107 38.1237 33.1537 37.4927 33.875" stroke="#7335C8" stroke-width="7" stroke-linecap="round" stroke-linejoin="round"/>
</svg>
